#!OML:ASF H:\Terrain\Patient Classification 1\Terrain2\Thursday\justin.ASF
:FULLY-SPECIFIED
:DEGREES
2452
root 9.56023 20.4932 -10.1197 -539.873 -2.26399 -175.357
lowerback 4.21069 0.116477 2.5086
upperback 3.12275 -0.124201 3.91758
thorax 0.860692 -0.207984 2.62394
lowerneck -10.9914 2.13732 -9.47297
upperneck 41.2393 -2.40404 4.83959
head 16.9246 -3.77186 2.91079
rclavicle -1.98785e-015 -2.94201e-014
rhumerus -26.3321 -13.4287 -76.6503
rradius 30.8195
rwrist -10.0082
rhand -20.2715 11.9636
rfingers 7.12502
rthumb 6.07771 -17.9292
lclavicle -1.98785e-015 -2.94201e-014
lhumerus -38.6939 8.32823 84.7982
lradius 28.0991
lwrist -3.11941
lhand -15.3321 20.144
lfingers 7.12502
lthumb 10.8445 49.844
rfemur -1.41542 -1.80054 27.1033
rtibia 32.3776
rfoot -22.0035 -5.1331
rtoes 3.62494
lfemur -11.0886 0.624371 -15.9594
ltibia 34.339
lfoot -16.8953 -5.88922
ltoes 6.77181
2453
root 9.53638 20.4584 -10.1414 -539.712 -2.39044 -175.325
lowerback 4.10531 0.0942396 2.64997
upperback 3.05462 -0.139156 3.82842
thorax 0.849225 -0.207146 2.45244
lowerneck -11.1079 2.0554 -9.41205
upperneck 41.3223 -2.61006 4.94375
head 17.0254 -3.83958 2.91285
rclavicle 9.93923e-017 3.97569e-014
rhumerus -26.8729 -14.1314 -76.5939
rradius 30.6497
rwrist -10.1274
rhand -20.5388 11.9075
rfingers 7.12502
rthumb 5.81961 -17.9926
lclavicle 9.93923e-017 3.97569e-014
lhumerus -38.5962 8.22457 84.7039
lradius 27.7811
lwrist -3.13097
lhand -14.845 20.5364
lfingers 7.12502
lthumb 11.3143 50.2112
rfemur -1.30782 -2.00395 27.0425
rtibia 32.5186
rfoot -21.8266 -5.1673
rtoes 2.59038
lfemur -11.3278 0.599423 -15.9917
ltibia 34.5542
lfoot -17.5109 -6.27437
ltoes 6.62871
2454
root 9.51267 20.4357 -10.1664 -539.662 -2.56358 -175.137
lowerback 4.08772 0.0694475 2.96924
upperback 2.97547 -0.152552 3.75805
thorax 0.777766 -0.205824 2.2011
lowerneck -10.9741 1.98628 -9.30121
upperneck 41.2211 -2.80749 5.07095
head 16.9566 -3.88207 2.91733
rclavicle -4.07509e-015 -3.97569e-015
rhumerus -27.557 -14.8572 -76.5067
rradius 30.5923
rwrist -10.1657
rhand -20.6538 11.7841
rfingers 7.12502
rthumb 5.70863 -18.119
lclavicle -4.07509e-015 -3.97569e-015
lhumerus -38.5803 8.26659 84.5083
lradius 27.4323
lwrist -3.28654
lhand -14.4412 20.7441
lfingers 7.12502
lthumb 11.7037 50.3971
rfemur -1.37767 -2.31948 27.1237
rtibia 32.9592
rfoot -21.7566 -5.38132
rtoes -0.371111
lfemur -11.3182 0.740258 -15.7997
ltibia 34.3819
lfoot -17.652 -6.93932
ltoes 7.2063
2455
root 9.49382 20.4308 -10.193 -539.687 -2.68286 -174.97
lowerback 4.19355 0.0724728 3.12983
upperback 2.90847 -0.132695 3.75174
thorax 0.649545 -0.193875 2.10445
lowerneck -10.8827 1.91331 -9.26745
upperneck 41.1796 -2.9896 5.16622
head 16.9318 -3.94065 2.92343
rclavicle 1.36167e-014 4.77083e-014
rhumerus -28.2147 -15.5609 -76.2512
rradius 30.5193
rwrist -9.8096
rhand -20.2534 11.3312
rfingers 7.12502
rthumb 6.09515 -18.5611
lclavicle 1.36167e-014 4.77083e-014
lhumerus -38.6585 8.43533 84.3613
lradius 27.2373
lwrist -3.56108
lhand -14.4017 20.5412
lfingers 7.12502
lthumb 11.7417 50.1921
rfemur -1.4749 -2.54387 27.2035
rtibia 33.337
rfoot -21.6843 -5.56459
rtoes -3.12906
lfemur -11.255 1.01657 -15.5791
ltibia 34.4044
lfoot -17.8046 -7.84208
ltoes 8.96983
2456
root 9.47723 20.4414 -10.2181 -539.692 -2.72259 -174.999
lowerback 4.33926 0.116393 3.08305
upperback 2.87574 -0.0616255 3.72272
thorax 0.533135 -0.157892 2.09867
lowerneck -11.0207 1.79979 -9.49668
upperneck 41.2857 -3.25808 5.47502
head 17.0684 -4.05607 3.06138
rclavicle 4.17448e-015 -9.54166e-015
rhumerus -28.6462 -16.016 -76.0044
rradius 30.1426
rwrist -9.71527
rhand -19.9189 11.5604
rfingers 7.12502
rthumb 6.41808 -18.3223
lclavicle 4.17448e-015 -9.54166e-015
lhumerus -38.6214 8.38836 84.3579
lradius 27.1509
lwrist -3.757
lhand -14.2775 20.7167
lfingers 7.12502
lthumb 11.8615 50.3607
rfemur -1.70109 -2.43304 27.0633
rtibia 33.9026
rfoot -21.6471 -5.23606
rtoes -3.45831
lfemur -11.1101 1.44704 -15.5581
ltibia 34.3048
lfoot -17.8914 -8.71562
ltoes 9.98402
